<?xml version="1.0" standalone="no"?>
<!DOCTYPE svg PUBLIC "-//W3C//DTD SVG 20010904//EN"
 "http://www.w3.org/TR/2001/REC-SVG-20010904/DTD/svg10.dtd">
<svg version="1.0" xmlns="http://www.w3.org/2000/svg"
 width="418.000000pt" height="418.000000pt" viewBox="0 0 418.000000 418.000000"
 preserveAspectRatio="xMidYMid meet">
<metadata>
Created by potrace 1.14, written by Peter Selinger 2001-2017
</metadata>
<g transform="translate(0.000000,418.000000) scale(0.100000,-0.100000)"
fill="#000000" stroke="none">
<path d="M2828 3784 c-2 -1 -23 -5 -47 -9 -61 -9 -137 -45 -198 -93 -54 -43
-103 -109 -167 -224 -20 -38 -40 -68 -44 -69 -19 -3 -65 -7 -147 -13 -49 -4
-101 -9 -115 -11 -14 -2 -45 -6 -70 -9 -70 -9 -133 -17 -160 -21 -14 -2 -45
-7 -70 -10 -24 -4 -48 -8 -51 -11 -4 -2 -36 36 -72 84 -135 181 -280 264 -467
266 -128 1 -226 -33 -360 -124 -218 -148 -507 -559 -584 -830 -96 -338 -13
-812 191 -1092 53 -73 195 -199 332 -295 3 -2 -8 -38 -22 -81 -43 -125 -59
-217 -59 -347 -1 -182 38 -303 122 -379 51 -46 81 -58 145 -58 70 -1 142 33
239 110 44 36 99 73 121 83 88 40 183 14 338 -94 180 -126 256 -160 356 -159
92 1 164 34 271 126 112 97 168 107 315 58 158 -53 245 -60 347 -27 64 21 149
67 203 110 67 54 80 58 164 50 242 -21 336 -12 426 41 123 71 206 246 206 434
1 189 -95 344 -296 480 -41 28 -78 50 -82 50 -4 0 -16 6 -25 14 -16 11 -13 18
31 78 94 129 161 280 202 453 20 85 24 126 24 275 0 188 -13 275 -61 420 -124
368 -421 693 -729 795 -56 19 -198 39 -207 29z"/>
</g>
</svg>
